<svg width="24" height="24" viewBox="0 0 24 24" fill="none" xmlns="http://www.w3.org/2000/svg">
<path d="M15.2853 7.21973L19.7803 11.7137C19.9073 11.8407 19.9845 12.0091 19.9979 12.1882C20.0113 12.3673 19.96 12.5453 19.8533 12.6897L19.7813 12.7747L15.2863 17.2787C15.1524 17.412 14.9732 17.4899 14.7845 17.4968C14.5957 17.5037 14.4113 17.4392 14.2681 17.316C14.1248 17.1929 14.0334 17.0202 14.0119 16.8326C13.9904 16.6449 14.0406 16.456 14.1523 16.3037L14.2243 16.2197L17.4413 12.9967L4.74527 12.9967C4.56403 12.9967 4.38893 12.9311 4.25234 12.812C4.11575 12.6928 4.02692 12.5283 4.00227 12.3487L3.99527 12.2477C3.99528 12.0665 4.06091 11.8914 4.18004 11.7548C4.29916 11.6182 4.46371 11.5294 4.64327 11.5047L4.74527 11.4977L17.4433 11.4967L14.2253 8.27973C14.0983 8.15274 14.021 7.98439 14.0076 7.80528C13.9942 7.62617 14.0456 7.4482 14.1523 7.30373L14.2253 7.21973C14.3523 7.09271 14.5206 7.01549 14.6997 7.00209C14.8788 6.98869 15.0568 7.04002 15.2013 7.14673L15.2853 7.21973L19.7803 11.7137L15.2853 7.21973Z" fill="black"/>
</svg>
