<svg width="32" height="32" viewBox="0 0 32 32" fill="none" xmlns="http://www.w3.org/2000/svg">
<path d="M3.33301 5.66666C3.33301 5.40144 3.43836 5.14709 3.6259 4.95955C3.81344 4.77201 4.06779 4.66666 4.33301 4.66666H5.07701C6.34367 4.66666 7.10367 5.51866 7.53701 6.31066C7.82634 6.83866 8.03567 7.45066 8.19967 8.00532C8.24403 8.00182 8.28851 8.00004 8.33301 7.99999H24.997C26.1037 7.99999 26.9037 9.05866 26.5997 10.124L24.1623 18.6693C23.9438 19.4358 23.4815 20.1102 22.8454 20.5904C22.2093 21.0706 21.434 21.3305 20.637 21.3307H12.7063C11.903 21.3307 11.1219 21.0669 10.483 20.5798C9.8442 20.0927 9.38301 19.4093 9.17034 18.6347L8.15701 14.9387L6.47701 9.27466L6.47567 9.26399C6.26767 8.50799 6.07301 7.79999 5.78234 7.27199C5.50367 6.75866 5.27967 6.66666 5.07834 6.66666H4.33301C4.06779 6.66666 3.81344 6.5613 3.6259 6.37376C3.43836 6.18623 3.33301 5.93187 3.33301 5.66666ZM11.9997 28C12.7069 28 13.3852 27.719 13.8853 27.2189C14.3854 26.7188 14.6663 26.0406 14.6663 25.3333C14.6663 24.6261 14.3854 23.9478 13.8853 23.4477C13.3852 22.9476 12.7069 22.6667 11.9997 22.6667C11.2924 22.6667 10.6142 22.9476 10.1141 23.4477C9.61396 23.9478 9.33301 24.6261 9.33301 25.3333C9.33301 26.0406 9.61396 26.7188 10.1141 27.2189C10.6142 27.719 11.2924 28 11.9997 28ZM21.333 28C22.0403 28 22.7185 27.719 23.2186 27.2189C23.7187 26.7188 23.9997 26.0406 23.9997 25.3333C23.9997 24.6261 23.7187 23.9478 23.2186 23.4477C22.7185 22.9476 22.0403 22.6667 21.333 22.6667C20.6258 22.6667 19.9475 22.9476 19.4474 23.4477C18.9473 23.9478 18.6663 24.6261 18.6663 25.3333C18.6663 26.0406 18.9473 26.7188 19.4474 27.2189C19.9475 27.719 20.6258 28 21.333 28Z" fill="white"/>
</svg>
