<svg width="24" height="24" viewBox="0 0 24 24" fill="none" xmlns="http://www.w3.org/2000/svg">
<path d="M11.9942 15.7102L20.7212 7.21817C20.7916 7.14826 20.8751 7.09298 20.9669 7.05555C21.0587 7.01811 21.1571 6.99926 21.2562 7.00009C21.3554 7.00091 21.4534 7.02139 21.5446 7.06035C21.6358 7.0993 21.7184 7.15596 21.7875 7.22703C21.8567 7.29811 21.9111 7.38219 21.9475 7.47442C21.984 7.56665 22.0018 7.66519 21.9999 7.76434C21.998 7.86349 21.9764 7.96128 21.9365 8.05205C21.8966 8.14283 21.839 8.22478 21.7672 8.29317L12.5172 17.2932C12.3772 17.4294 12.1896 17.5056 11.9942 17.5056C11.7989 17.5056 11.6112 17.4294 11.4712 17.2932L2.22123 8.29317C2.14942 8.22478 2.09188 8.14283 2.05195 8.05205C2.01202 7.96128 1.99049 7.86349 1.9886 7.76434C1.98671 7.66519 2.00451 7.56665 2.04095 7.47442C2.0774 7.38219 2.13178 7.2981 2.20093 7.22703C2.27009 7.15596 2.35266 7.0993 2.44386 7.06035C2.53505 7.02139 2.63307 7.00091 2.73223 7.00009C2.8314 6.99926 2.92974 7.01811 3.02158 7.05555C3.11341 7.09298 3.1969 7.14826 3.26723 7.21817L11.9942 15.7112L11.9942 15.7102Z" fill="#374147"/>
</svg>
