<svg width="24" height="24" viewBox="0 0 24 24" fill="none" xmlns="http://www.w3.org/2000/svg">
<path d="M18.2763 5.55824L18.364 5.63603C18.5371 5.80924 18.6407 6.03999 18.655 6.2845C18.6694 6.52902 18.5935 6.77029 18.4417 6.96256L18.364 7.05024L13.4142 12L18.364 16.9497C18.5371 17.123 18.6407 17.3537 18.655 17.5982C18.6694 17.8427 18.5935 18.084 18.4417 18.2763L18.364 18.3639C18.1907 18.5371 17.96 18.6407 17.7155 18.655C17.471 18.6694 17.2297 18.5935 17.0374 18.4417L16.9497 18.3639L12 13.4142L7.05025 18.3639C6.87704 18.5371 6.64629 18.6407 6.40177 18.655C6.15726 18.6694 5.91599 18.5935 5.72372 18.4417L5.63604 18.3639C5.46287 18.1907 5.35929 17.96 5.34495 17.7155C5.33062 17.471 5.40652 17.2297 5.55826 17.0374L5.63604 16.9497L10.5858 12L5.63604 7.05024C5.46287 6.87702 5.35929 6.64627 5.34495 6.40176C5.33062 6.15725 5.40652 5.91597 5.55826 5.72371L5.63604 5.63603C5.80926 5.46285 6.04 5.35928 6.28452 5.34494C6.52903 5.3306 6.7703 5.4065 6.96257 5.55824L7.05025 5.63603L12 10.5858L16.9497 5.63603C17.123 5.46285 17.3537 5.35928 17.5982 5.34494C17.8427 5.3306 18.084 5.4065 18.2763 5.55824L18.364 5.63603L18.2763 5.55824Z" fill="#374147"/>
</svg>
