<svg width="32" height="32" viewBox="0 0 32 32" fill="none" xmlns="http://www.w3.org/2000/svg">
<path d="M25.3998 8.12H26.1498H25.3998ZM15.7998 6.2L15.2695 5.66967L14.7391 6.2L15.2695 6.73033L15.7998 6.2ZM19.5301 3.53033C19.823 3.23744 19.823 2.76256 19.5301 2.46967C19.2372 2.17678 18.7624 2.17678 18.4695 2.46967L19.5301 3.53033ZM18.4695 9.93033C18.7624 10.2232 19.2372 10.2232 19.5301 9.93033C19.823 9.63744 19.823 9.16256 19.5301 8.86967L18.4695 9.93033ZM26.1498 8.12C26.1498 7.36439 25.9604 6.65993 25.4501 6.14967C24.9399 5.63941 24.2354 5.45 23.4798 5.45V6.95C24.0042 6.95 24.2597 7.08059 24.3895 7.21033C24.5192 7.34007 24.6498 7.59561 24.6498 8.12H26.1498ZM23.4798 5.45C22.8434 5.45 20.9162 5.45 19.1598 5.45C18.3351 5.45 17.3845 5.45 16.8198 5.45C16.7942 5.45 16.8164 5.45 16.7909 5.45C16.7861 5.45 16.7813 5.45 16.7766 5.45C16.7718 5.45 16.7671 5.45 16.7623 5.45C16.7576 5.45 16.7529 5.45 16.7482 5.45C16.7435 5.45 16.7388 5.45 16.7341 5.45C16.7294 5.45 16.7247 5.45 16.7201 5.45C16.7154 5.45 16.7108 5.45 16.7062 5.45C16.6562 5.45 16.6461 5.45 16.598 5.45C16.5523 5.45 16.5391 5.45 16.4954 5.45C16.4916 5.45 16.4007 5.45 16.3989 5.45C16.3786 5.45 16.2363 5.45 16.2246 5.45C16.2213 5.45 16.2179 5.45 16.2146 5.45C16.2113 5.45 16.208 5.45 16.2047 5.45C16.1872 5.45 16.2026 5.45 16.1852 5.45C16.1682 5.45 16.1638 5.45 16.1475 5.45C16.1311 5.45 16.1273 5.45 16.1115 5.45C16.0803 5.45 16.1079 5.45 16.0773 5.45C16.0329 5.45 15.9934 5.45 15.9591 5.45C15.9569 5.45 15.9548 5.45 15.9527 5.45C15.9506 5.45 15.9485 5.45 15.9464 5.45C15.9444 5.45 15.9423 5.45 15.9403 5.45C15.9383 5.45 15.9363 5.45 15.9343 5.45C15.9323 5.45 15.9303 5.45 15.9284 5.45C15.9265 5.45 15.9245 5.45 15.9226 5.45C15.9207 5.45 15.9189 5.45 15.917 5.45C15.9152 5.45 15.9133 5.45 15.9115 5.45C15.8728 5.45 15.908 5.45 15.872 5.45C15.8405 5.45 15.8694 5.45 15.8408 5.45C15.83 5.45 15.8385 5.45 15.8284 5.45C15.8275 5.45 15.8266 5.45 15.8257 5.45C15.8248 5.45 15.8239 5.45 15.823 5.45C15.8222 5.45 15.8214 5.45 15.8205 5.45C15.8197 5.45 15.819 5.45 15.8182 5.45C15.8174 5.45 15.8167 5.45 15.816 5.45C15.8153 5.45 15.8146 5.45 15.8139 5.45C15.8133 5.45 15.8126 5.45 15.812 5.45C15.8114 5.45 15.8108 5.45 15.8102 5.45C15.8096 5.45 15.8091 5.45 15.8086 5.45C15.808 5.45 15.8075 5.45 15.807 5.45C15.8066 5.45 15.8061 5.45 15.8057 5.45C15.8052 5.45 15.8048 5.45 15.8044 5.45C15.8041 5.45 15.8037 5.45 15.8034 5.45C15.803 5.45 15.8027 5.45 15.8024 5.45C15.8021 5.45 15.8019 5.45 15.8016 5.45C15.8014 5.45 15.8012 5.45 15.801 5.45C15.8008 5.45 15.8006 5.45 15.8005 5.45C15.8003 5.45 15.8002 5.45 15.8001 5.45C15.8 5.45 15.7999 5.45 15.7999 5.45C15.7998 5.45 15.7998 5.45 15.7998 6.2C15.7998 6.95 15.7998 6.95 15.7999 6.95C15.7999 6.95 15.8 6.95 15.8001 6.95C15.8002 6.95 15.8003 6.95 15.8005 6.95C15.8006 6.95 15.8008 6.95 15.801 6.95C15.8012 6.95 15.8014 6.95 15.8016 6.95C15.8019 6.95 15.8021 6.95 15.8024 6.95C15.8027 6.95 15.803 6.95 15.8034 6.95C15.8037 6.95 15.8041 6.95 15.8044 6.95C15.8048 6.95 15.8052 6.95 15.8057 6.95C15.8061 6.95 15.8066 6.95 15.807 6.95C15.8075 6.95 15.808 6.95 15.8086 6.95C15.8091 6.95 15.8096 6.95 15.8102 6.95C15.8108 6.95 15.8114 6.95 15.812 6.95C15.8126 6.95 15.8133 6.95 15.8139 6.95C15.8146 6.95 15.8153 6.95 15.816 6.95C15.8167 6.95 15.8174 6.95 15.8182 6.95C15.8392 6.95 15.8169 6.95 15.8408 6.95C15.8694 6.95 15.8405 6.95 15.872 6.95C15.8735 6.95 15.875 6.95 15.8765 6.95C15.878 6.95 15.8795 6.95 15.8811 6.95C15.8827 6.95 15.8842 6.95 15.8858 6.95C15.8875 6.95 15.8891 6.95 15.8907 6.95C15.8924 6.95 15.894 6.95 15.8957 6.95C15.8974 6.95 15.8991 6.95 15.9009 6.95C15.9026 6.95 15.9043 6.95 15.9061 6.95C15.9079 6.95 15.9097 6.95 15.9115 6.95C15.9133 6.95 15.9152 6.95 15.917 6.95C15.9189 6.95 15.9207 6.95 15.9226 6.95C15.9245 6.95 15.9265 6.95 15.9284 6.95C15.9303 6.95 15.9323 6.95 15.9343 6.95C15.9363 6.95 15.9383 6.95 15.9403 6.95C15.9423 6.95 15.9444 6.95 15.9464 6.95C15.9485 6.95 15.9506 6.95 15.9527 6.95C15.9548 6.95 15.9569 6.95 15.9591 6.95C15.9612 6.95 15.9634 6.95 15.9656 6.95C15.9677 6.95 15.97 6.95 15.9722 6.95C15.9722 6.95 15.9856 6.95 15.9858 6.95C15.9983 6.95 16.0013 6.95 16.0144 6.95C16.0276 6.95 16.0312 6.95 16.0449 6.95C16.0729 6.95 16.0487 6.95 16.0773 6.95C16.1079 6.95 16.0803 6.95 16.1115 6.95C16.1273 6.95 16.1311 6.95 16.1475 6.95C16.1638 6.95 16.1682 6.95 16.1852 6.95C16.2026 6.95 16.1872 6.95 16.2047 6.95C16.208 6.95 16.2113 6.95 16.2146 6.95C16.2179 6.95 16.2213 6.95 16.2246 6.95C16.2363 6.95 16.3786 6.95 16.3989 6.95C16.4007 6.95 16.4916 6.95 16.4954 6.95C16.5391 6.95 16.5523 6.95 16.598 6.95C16.6461 6.95 16.6562 6.95 16.7062 6.95C16.7562 6.95 16.7118 6.95 16.7623 6.95C16.7671 6.95 16.7718 6.95 16.7766 6.95C16.7813 6.95 16.7861 6.95 16.7909 6.95C16.8164 6.95 16.7942 6.95 16.8198 6.95C17.3845 6.95 18.3351 6.95 19.1598 6.95C20.9162 6.95 22.8434 6.95 23.4798 6.95V5.45ZM16.3301 6.73033L19.5301 3.53033L18.4695 2.46967L15.2695 5.66967L16.3301 6.73033ZM15.2695 6.73033L18.4695 9.93033L19.5301 8.86967L16.3301 5.66967L15.2695 6.73033ZM26.1498 22.84C26.1498 16.9166 26.1498 8.92127 26.1498 8.12H24.6498C24.6498 8.92127 24.6498 16.9166 24.6498 22.84H26.1498ZM25.3998 23.59C26.7529 23.59 27.8498 24.6869 27.8498 26.04H29.3498C29.3498 23.8585 27.5813 22.09 25.3998 22.09V23.59ZM27.8498 26.04C27.8498 27.3931 26.7529 28.49 25.3998 28.49V29.99C27.5813 29.99 29.3498 28.2215 29.3498 26.04H27.8498ZM25.3998 28.49C24.0467 28.49 22.9498 27.3931 22.9498 26.04H21.4498C21.4498 28.2215 23.2183 29.99 25.3998 29.99V28.49ZM22.9498 26.04C22.9498 24.6869 24.0467 23.59 25.3998 23.59V22.09C23.2183 22.09 21.4498 23.8585 21.4498 26.04H22.9498Z" fill="white"/>
<path d="M6.19981 24.12H5.44981H6.19981ZM15.7998 26.04L16.3301 26.5703L16.8605 26.04L16.3301 25.5097L15.7998 26.04ZM12.0695 28.7097C11.7766 29.0026 11.7766 29.4774 12.0695 29.7703C12.3624 30.0632 12.8372 30.0632 13.1301 29.7703L12.0695 28.7097ZM13.1301 22.3097C12.8372 22.0168 12.3624 22.0168 12.0695 22.3097C11.7766 22.6026 11.7766 23.0774 12.0695 23.3703L13.1301 22.3097ZM5.44981 24.12C5.44981 24.8756 5.63922 25.5801 6.14948 26.0903C6.65973 26.6006 7.3642 26.79 8.1198 26.79V25.29C7.59541 25.29 7.33988 25.1594 7.21013 25.0297C7.08039 24.8999 6.94981 24.6444 6.94981 24.12H5.44981ZM8.1198 26.79C8.75623 26.79 10.6834 26.79 12.4398 26.79C13.2645 26.79 14.2151 26.79 14.7798 26.79C14.8055 26.79 14.7832 26.79 14.8087 26.79C14.8135 26.79 14.8183 26.79 14.823 26.79C14.8278 26.79 14.8325 26.79 14.8373 26.79C14.842 26.79 14.8467 26.79 14.8514 26.79C14.8562 26.79 14.8608 26.79 14.8655 26.79C14.8702 26.79 14.8749 26.79 14.8795 26.79C14.8842 26.79 14.8888 26.79 14.8934 26.79C14.9434 26.79 14.9535 26.79 15.0016 26.79C15.0473 26.79 15.0605 26.79 15.1042 26.79C15.108 26.79 15.1989 26.79 15.2007 26.79C15.221 26.79 15.3634 26.79 15.375 26.79C15.3784 26.79 15.3817 26.79 15.385 26.79C15.3883 26.79 15.3916 26.79 15.3949 26.79C15.4125 26.79 15.3971 26.79 15.4144 26.79C15.4314 26.79 15.4358 26.79 15.4522 26.79C15.4685 26.79 15.4723 26.79 15.4881 26.79C15.5193 26.79 15.4917 26.79 15.5223 26.79C15.5667 26.79 15.6062 26.79 15.6405 26.79C15.6427 26.79 15.6448 26.79 15.6469 26.79C15.649 26.79 15.6511 26.79 15.6532 26.79C15.6552 26.79 15.6573 26.79 15.6593 26.79C15.6613 26.79 15.6633 26.79 15.6653 26.79C15.6673 26.79 15.6693 26.79 15.6712 26.79C15.6731 26.79 15.6751 26.79 15.677 26.79C15.6789 26.79 15.6807 26.79 15.6826 26.79C15.6845 26.79 15.6863 26.79 15.6881 26.79C15.7268 26.79 15.6916 26.79 15.7276 26.79C15.7591 26.79 15.7302 26.79 15.7588 26.79C15.7696 26.79 15.7611 26.79 15.7712 26.79C15.7721 26.79 15.7731 26.79 15.774 26.79C15.7748 26.79 15.7757 26.79 15.7766 26.79C15.7774 26.79 15.7783 26.79 15.7791 26.79C15.7799 26.79 15.7806 26.79 15.7814 26.79C15.7822 26.79 15.7829 26.79 15.7836 26.79C15.7843 26.79 15.785 26.79 15.7857 26.79C15.7864 26.79 15.787 26.79 15.7876 26.79C15.7882 26.79 15.7888 26.79 15.7894 26.79C15.79 26.79 15.7905 26.79 15.7911 26.79C15.7916 26.79 15.7921 26.79 15.7926 26.79C15.793 26.79 15.7935 26.79 15.7939 26.79C15.7944 26.79 15.7948 26.79 15.7952 26.79C15.7955 26.79 15.7959 26.79 15.7962 26.79C15.7966 26.79 15.7969 26.79 15.7972 26.79C15.7975 26.79 15.7977 26.79 15.798 26.79C15.7982 26.79 15.7984 26.79 15.7986 26.79C15.7988 26.79 15.799 26.79 15.7991 26.79C15.7993 26.79 15.7994 26.79 15.7995 26.79C15.7996 26.79 15.7997 26.79 15.7997 26.79C15.7998 26.79 15.7998 26.79 15.7998 26.04C15.7998 25.29 15.7998 25.29 15.7997 25.29C15.7997 25.29 15.7996 25.29 15.7995 25.29C15.7994 25.29 15.7993 25.29 15.7991 25.29C15.799 25.29 15.7988 25.29 15.7986 25.29C15.7984 25.29 15.7982 25.29 15.798 25.29C15.7977 25.29 15.7975 25.29 15.7972 25.29C15.7969 25.29 15.7966 25.29 15.7962 25.29C15.7959 25.29 15.7955 25.29 15.7952 25.29C15.7948 25.29 15.7944 25.29 15.7939 25.29C15.7935 25.29 15.793 25.29 15.7926 25.29C15.7921 25.29 15.7916 25.29 15.7911 25.29C15.7905 25.29 15.79 25.29 15.7894 25.29C15.7888 25.29 15.7882 25.29 15.7876 25.29C15.787 25.29 15.7864 25.29 15.7857 25.29C15.785 25.29 15.7843 25.29 15.7836 25.29C15.7829 25.29 15.7822 25.29 15.7814 25.29C15.7604 25.29 15.7827 25.29 15.7588 25.29C15.7302 25.29 15.7591 25.29 15.7276 25.29C15.7261 25.29 15.7246 25.29 15.7231 25.29C15.7216 25.29 15.7201 25.29 15.7185 25.29C15.7169 25.29 15.7154 25.29 15.7138 25.29C15.7122 25.29 15.7105 25.29 15.7089 25.29C15.7072 25.29 15.7056 25.29 15.7039 25.29C15.7022 25.29 15.7005 25.29 15.6988 25.29C15.697 25.29 15.6953 25.29 15.6935 25.29C15.6917 25.29 15.6899 25.29 15.6881 25.29C15.6863 25.29 15.6845 25.29 15.6826 25.29C15.6807 25.29 15.6789 25.29 15.677 25.29C15.6751 25.29 15.6731 25.29 15.6712 25.29C15.6693 25.29 15.6673 25.29 15.6653 25.29C15.6633 25.29 15.6613 25.29 15.6593 25.29C15.6573 25.29 15.6552 25.29 15.6532 25.29C15.6511 25.29 15.649 25.29 15.6469 25.29C15.6448 25.29 15.6427 25.29 15.6405 25.29C15.6384 25.29 15.6362 25.29 15.634 25.29C15.6319 25.29 15.6297 25.29 15.6274 25.29C15.6274 25.29 15.614 25.29 15.6138 25.29C15.6013 25.29 15.5983 25.29 15.5852 25.29C15.572 25.29 15.5684 25.29 15.5547 25.29C15.5267 25.29 15.5509 25.29 15.5223 25.29C15.4917 25.29 15.5193 25.29 15.4881 25.29C15.4723 25.29 15.4685 25.29 15.4522 25.29C15.4358 25.29 15.4314 25.29 15.4144 25.29C15.3971 25.29 15.4125 25.29 15.3949 25.29C15.3916 25.29 15.3883 25.29 15.385 25.29C15.3817 25.29 15.3784 25.29 15.375 25.29C15.3634 25.29 15.221 25.29 15.2007 25.29C15.1989 25.29 15.108 25.29 15.1042 25.29C15.0605 25.29 15.0473 25.29 15.0016 25.29C14.9535 25.29 14.9434 25.29 14.8934 25.29C14.8434 25.29 14.8878 25.29 14.8373 25.29C14.8325 25.29 14.8278 25.29 14.823 25.29C14.8183 25.29 14.8135 25.29 14.8087 25.29C14.7832 25.29 14.8055 25.29 14.7798 25.29C14.2151 25.29 13.2645 25.29 12.4398 25.29C10.6834 25.29 8.75623 25.29 8.1198 25.29V26.79ZM15.2695 25.5097L12.0695 28.7097L13.1301 29.7703L16.3301 26.5703L15.2695 25.5097ZM16.3301 25.5097L13.1301 22.3097L12.0695 23.3703L15.2695 26.5703L16.3301 25.5097ZM5.44981 9.39999C5.44981 15.3234 5.44981 23.3187 5.44981 24.12H6.94981C6.94981 23.3187 6.94981 15.3234 6.94981 9.39999H5.44981ZM6.19981 8.64999C4.84671 8.64999 3.74981 7.55309 3.74981 6.19999H2.24981C2.24981 8.38152 4.01828 10.15 6.19981 10.15V8.64999ZM3.74981 6.19999C3.74981 4.8469 4.84671 3.74999 6.19981 3.74999V2.24999C4.01828 2.24999 2.24981 4.01847 2.24981 6.19999H3.74981ZM6.19981 3.74999C7.5529 3.74999 8.64981 4.8469 8.64981 6.19999H10.1498C10.1498 4.01847 8.38133 2.24999 6.19981 2.24999V3.74999ZM8.64981 6.19999C8.64981 7.55309 7.5529 8.64999 6.19981 8.64999V10.15C8.38133 10.15 10.1498 8.38152 10.1498 6.19999H8.64981Z" fill="white"/>
</svg>
