<svg width="24" height="24" viewBox="0 0 24 24" fill="none" xmlns="http://www.w3.org/2000/svg">
<path d="M5.84341 4.568C7.47635 2.93506 9.69109 2.01768 12.0004 2.01768C14.3097 2.01768 16.5245 2.93506 18.1574 4.568C19.7903 6.20094 20.7077 8.41568 20.7077 10.725C20.7077 13.0343 19.7903 15.2491 18.1574 16.882L16.9704 18.056C16.0954 18.914 14.9604 20.018 13.5644 21.368C13.1448 21.7737 12.584 22.0005 12.0004 22.0005C11.4168 22.0005 10.856 21.7737 10.4364 21.368L6.94541 17.972C6.50641 17.541 6.13941 17.178 5.84341 16.882C5.03483 16.0735 4.39342 15.1136 3.95581 14.0572C3.5182 13.0007 3.29297 11.8685 3.29297 10.725C3.29297 9.58153 3.5182 8.44925 3.95581 7.39283C4.39342 6.33641 5.03483 5.37653 5.84341 4.568ZM17.0964 5.628C15.7446 4.27645 13.9113 3.51727 11.9997 3.51746C10.0881 3.51765 8.25495 4.27719 6.90341 5.629C5.55187 6.98081 4.79268 8.81415 4.79287 10.7257C4.79306 12.6373 5.5526 14.4705 6.90441 15.822L8.39041 17.29C9.41689 18.2929 10.4462 19.2929 11.4784 20.29C11.6183 20.4253 11.8053 20.501 11.9999 20.501C12.1945 20.501 12.3815 20.4253 12.5214 20.29L15.9154 16.99C16.3854 16.529 16.7784 16.14 17.0954 15.822C18.4469 14.4704 19.2062 12.6374 19.2062 10.726C19.2062 8.81464 18.4469 6.98156 17.0954 5.63L17.0964 5.628ZM12.0004 7.999C12.3946 7.999 12.785 8.07665 13.1492 8.22751C13.5134 8.37838 13.8444 8.5995 14.1231 8.87826C14.4019 9.15702 14.623 9.48796 14.7739 9.85218C14.9248 10.2164 15.0024 10.6068 15.0024 11.001C15.0024 11.3952 14.9248 11.7856 14.7739 12.1498C14.623 12.514 14.4019 12.845 14.1231 13.1237C13.8444 13.4025 13.5134 13.6236 13.1492 13.7745C12.785 13.9253 12.3946 14.003 12.0004 14.003C11.2139 13.9886 10.4644 13.6661 9.91318 13.1048C9.36201 12.5434 9.0532 11.7882 9.0532 11.0015C9.0532 10.2148 9.36201 9.45955 9.91318 8.89822C10.4644 8.33689 11.2139 8.01436 12.0004 8V7.999ZM12.0004 9.499C11.8032 9.499 11.6079 9.53785 11.4256 9.61333C11.2434 9.68881 11.0778 9.79945 10.9383 9.93892C10.7989 10.0784 10.6882 10.244 10.6127 10.4262C10.5373 10.6084 10.4984 10.8038 10.4984 11.001C10.4984 11.1982 10.5373 11.3936 10.6127 11.5758C10.6882 11.758 10.7989 11.9236 10.9383 12.0631C11.0778 12.2025 11.2434 12.3132 11.4256 12.3887C11.6079 12.4641 11.8032 12.503 12.0004 12.503C12.3986 12.503 12.7805 12.3448 13.0621 12.0632C13.3437 11.7816 13.5019 11.3997 13.5019 11.0015C13.5019 10.6033 13.3437 10.2214 13.0621 9.93978C12.7805 9.65819 12.3986 9.5 12.0004 9.5V9.499Z" fill="#0083DD"/>
</svg>
