<svg width="155" height="64" viewBox="0 0 155 64" fill="none" xmlns="http://www.w3.org/2000/svg">
<path d="M0 33.5162H2.83541V45.5731H17.4644V33.5162H20.2998V62.2822H17.4644V48.3826H2.83541V62.2822H0V33.5162Z" fill="#00459A"/>
<path d="M41.7858 55.1277L44.079 56.3391C43.3277 57.8348 42.4579 59.0405 41.4751 59.9562C40.4866 60.8718 39.3796 61.5714 38.1483 62.0491C36.917 62.5268 35.5219 62.7657 33.9686 62.7657C30.5175 62.7657 27.8233 61.6282 25.8803 59.3533C23.9373 57.0784 22.9658 54.5078 22.9658 51.6414C22.9658 48.9457 23.7905 46.54 25.4341 44.4243C27.5183 41.74 30.3085 40.3978 33.8105 40.3978C37.414 40.3978 40.289 41.7684 42.4409 44.5096C43.9716 46.449 44.7454 48.8661 44.7737 51.7609H25.7109C25.7617 54.2405 26.5524 56.2708 28.0718 57.8519C29.5968 59.4386 31.4777 60.2292 33.7144 60.2292C34.7932 60.2292 35.8438 60.0415 36.8661 59.6604C37.8885 59.2851 38.7583 58.7789 39.47 58.1533C40.176 57.5391 40.9498 56.5268 41.7858 55.1277ZM41.7914 49.4234C41.4243 47.9675 40.899 46.8016 40.1986 45.9315C39.5039 45.0613 38.5832 44.3561 37.4366 43.8272C36.29 43.2926 35.0869 43.0253 33.8217 43.0253C31.7375 43.0253 29.947 43.6964 28.4502 45.0329C27.3545 46.0054 26.5299 47.4727 25.9707 49.4234H41.7914Z" fill="#00459A"/>
<path d="M47.4844 41.0233H50.1786V49.9864L60.0065 41.0233H63.7513L53.0479 50.7371L64.5985 62.2879H60.7521L51.0315 52.4547L50.1786 53.2168V62.2879H47.4844V41.0233Z" fill="#00459A"/>
<path d="M84.5538 45.3172L82.3961 46.6651C80.5266 44.1798 77.9792 42.9399 74.7484 42.9399C72.1672 42.9399 70.0265 43.776 68.3207 45.448C66.615 47.1201 65.7621 49.1504 65.7621 51.5334C65.7621 53.086 66.1518 54.5476 66.9369 55.9182C67.722 57.2888 68.7952 58.3524 70.1677 59.1088C71.5346 59.8652 73.0709 60.2462 74.771 60.2462C77.8832 60.2462 80.4249 59.0007 82.3961 56.5154L84.5538 57.9429C83.5427 59.4784 82.1815 60.6671 80.4814 61.5088C78.7756 62.3505 76.8326 62.7713 74.658 62.7713C71.3143 62.7713 68.541 61.7021 66.3325 59.5637C64.1297 57.4253 63.0283 54.8263 63.0283 51.7609C63.0283 49.7021 63.5423 47.7912 64.5759 46.0224C65.6096 44.2537 67.0216 42.8774 68.8234 41.8878C70.6252 40.8982 72.6416 40.4034 74.8727 40.4034C76.2734 40.4034 77.6234 40.6139 78.9281 41.0404C80.2328 41.467 81.3343 42.0186 82.2437 42.7011C83.1474 43.3892 83.9212 44.2594 84.5538 45.3172Z" fill="#00459A"/>
<path d="M84.6104 41.0233H98.5502V43.3721H92.9302V62.2879H90.2304V43.3721H84.6104V41.0233Z" fill="#00459A"/>
<path d="M37.5439 33.5389H40.8256V34.102H39.4982V38.5665H38.86V34.102H37.5439V33.5389Z" fill="#00459A"/>
<path d="M43.9435 33.4195C44.7116 33.4195 45.3499 33.6982 45.8582 34.2612C46.3157 34.773 46.5473 35.3759 46.5473 36.0754C46.5473 36.775 46.3044 37.3892 45.8187 37.9124C45.3329 38.4356 44.706 38.6972 43.9435 38.6972C43.1753 38.6972 42.5484 38.4356 42.0626 37.9124C41.5769 37.3892 41.334 36.775 41.334 36.0754C41.334 35.3816 41.5656 34.7787 42.0231 34.2669C42.5314 33.7039 43.1697 33.4195 43.9435 33.4195ZM43.9379 34.0508C43.4013 34.0508 42.9438 34.2498 42.5597 34.6479C42.1756 35.046 41.9835 35.5238 41.9835 36.0925C41.9835 36.4565 42.0683 36.7977 42.2434 37.1105C42.4185 37.4233 42.6557 37.6679 42.955 37.8385C43.2544 38.0091 43.582 38.0944 43.9379 38.0944C44.2937 38.0944 44.6213 38.0091 44.9206 37.8385C45.22 37.6679 45.4572 37.4233 45.6323 37.1105C45.8074 36.7977 45.8978 36.4565 45.8978 36.0925C45.8978 35.5294 45.7058 35.046 45.316 34.6479C44.9319 34.2498 44.4688 34.0508 43.9379 34.0508Z" fill="#00459A"/>
<path d="M47.4902 33.5503H48.1285V34.4716C48.3827 34.119 48.6764 33.8574 49.004 33.6868C49.3372 33.5105 49.7044 33.4252 50.111 33.4252C50.8227 33.4252 51.4271 33.6811 51.9297 34.1986C52.4324 34.7105 52.6866 35.3304 52.6866 36.0527C52.6866 36.792 52.4381 37.4176 51.9354 37.9351C51.4327 38.4527 50.834 38.7086 50.128 38.7086C49.7326 38.7086 49.3654 38.6233 49.0322 38.4584C48.6989 38.2934 48.3996 38.0432 48.1285 37.7133V40.4205H47.4902V33.5503ZM50.0602 34.0451C49.5066 34.0451 49.0379 34.2384 48.6538 34.6309C48.2753 35.0233 48.0833 35.5067 48.0833 36.0868C48.0833 36.4678 48.168 36.8091 48.3375 37.1162C48.5069 37.4233 48.7498 37.6621 49.0661 37.8385C49.3824 38.0148 49.7156 38.1058 50.0658 38.1058C50.4104 38.1058 50.738 38.0148 51.0373 37.8385C51.3424 37.6565 51.5852 37.4062 51.766 37.0877C51.9467 36.7636 52.0371 36.428 52.0371 36.0754C52.0371 35.7171 51.9467 35.3816 51.7716 35.0631C51.5909 34.7446 51.3536 34.4944 51.0486 34.3181C50.7436 34.1361 50.416 34.0451 50.0602 34.0451Z" fill="#00459A"/>
<path d="M54.2681 34.102V38.5665H53.6299V33.5389H56.1547V34.102H54.2681Z" fill="#00459A"/>
<path d="M59.0245 33.4081C59.7927 33.4081 60.4309 33.6868 60.9393 34.2499C61.3968 34.7617 61.6284 35.3646 61.6284 36.0641C61.6284 36.7636 61.3855 37.3778 60.8997 37.9011C60.414 38.4243 59.787 38.6859 59.0245 38.6859C58.2564 38.6859 57.6294 38.4243 57.1437 37.9011C56.6579 37.3778 56.415 36.7636 56.415 36.0641C56.415 35.3702 56.6466 34.7674 57.1041 34.2556C57.6125 33.6925 58.2507 33.4081 59.0245 33.4081ZM59.0189 34.0394C58.4823 34.0394 58.0248 34.2385 57.6407 34.6366C57.2566 35.0347 57.0646 35.5124 57.0646 36.0812C57.0646 36.4451 57.155 36.7864 57.3244 37.0992C57.4995 37.412 57.7367 37.6565 58.0361 37.8271C58.3354 37.9978 58.663 38.0831 59.0189 38.0831C59.3747 38.0831 59.7023 37.9978 60.0017 37.8271C60.3011 37.6565 60.5382 37.412 60.7133 37.0992C60.8884 36.7864 60.9732 36.4451 60.9732 36.0812C60.9732 35.5181 60.7811 35.0347 60.397 34.6366C60.0073 34.2385 59.5498 34.0394 59.0189 34.0394Z" fill="#00459A"/>
<path d="M64.0229 38.5778H62.5713V33.5503H64.0003C64.5482 33.5503 64.9379 33.6754 65.1808 33.9313C65.4236 34.1816 65.5423 34.4773 65.5423 34.8186C65.5423 35.3304 65.322 35.6773 64.8701 35.8593C65.514 36.0925 65.836 36.5361 65.836 37.1958C65.8416 38.1115 65.2373 38.5778 64.0229 38.5778ZM63.2152 34.1076V35.6716H63.6388C64.0229 35.6716 64.2714 35.6546 64.39 35.6261C64.5086 35.5977 64.616 35.5181 64.7233 35.3986C64.8249 35.2792 64.8758 35.1143 64.8758 34.9152C64.8758 34.7048 64.8249 34.5342 64.712 34.392C64.6046 34.2498 64.4917 34.1702 64.3731 34.1418C64.2545 34.119 64.0116 34.102 63.6388 34.102H63.2152V34.1076ZM63.2152 36.2745V38.0375H63.9043C64.2319 38.0375 64.4634 38.0148 64.599 37.975C64.7402 37.9352 64.8588 37.8442 64.9605 37.702C65.0622 37.5655 65.1073 37.3892 65.1073 37.1731C65.1073 36.9001 65.0226 36.6783 64.8475 36.519C64.6781 36.3541 64.4465 36.2745 64.1641 36.2745H63.2152Z" fill="#00459A"/>
<path d="M67.3669 35.5295L67.9769 35.5352C68.4627 35.5352 68.8467 35.5807 69.1178 35.6546C69.3946 35.7342 69.6318 35.9048 69.8295 36.1665C70.0272 36.4281 70.1232 36.7352 70.1232 37.0764C70.1232 37.4916 69.9764 37.8442 69.6827 38.1343C69.3946 38.4243 68.954 38.5722 68.3723 38.5722L66.7061 38.5608L66.7343 33.5333L67.3725 33.539L67.3669 35.5295ZM67.3895 36.1153L67.3782 38.0034L68.1181 38.0091C68.9879 38.0148 69.4229 37.7077 69.4285 37.0992C69.4285 36.9229 69.3833 36.7522 69.2929 36.5816C69.2026 36.411 69.067 36.2973 68.8863 36.2233C68.7055 36.1551 68.3892 36.121 67.9374 36.1153H67.3895ZM71.0269 33.556L71.6652 33.5617L71.637 38.5892L70.9987 38.5835L71.0269 33.556Z" fill="#00459A"/>
<path d="M73.4216 33.5219L73.4047 37.247L77.0873 33.5446H77.1381L77.1099 38.5722L76.4716 38.5665L76.4942 34.8698L72.8398 38.5437H72.7607L72.789 33.5162L73.4216 33.5219ZM73.3482 31.5029L73.9525 31.5086C74.0542 31.6678 74.1954 31.793 74.3705 31.8726C74.5456 31.9522 74.7489 31.9977 74.9918 31.9977C75.2347 31.9977 75.4324 31.9636 75.5849 31.8954C75.7317 31.8271 75.8786 31.702 76.0141 31.52L76.5959 31.5257C76.5281 31.8043 76.353 32.0375 76.0763 32.2195C75.7995 32.4072 75.4324 32.4982 74.9805 32.4925C74.5343 32.4925 74.1671 32.3958 73.8847 32.2081C73.6023 32.0261 73.4273 31.7873 73.3482 31.5029Z" fill="#00459A"/>
<path d="M80.0919 38.0262L82.0179 33.5503H82.3512L84.2659 38.0262H84.8703V39.2205H84.2547V38.5835H80.1314V39.2489H79.4932V38.0318H80.0919V38.0262ZM82.1817 34.5569L80.7189 38.0205H83.5769L82.1817 34.5569Z" fill="#00459A"/>
<path d="M87.5421 33.4025C88.3103 33.4025 88.9485 33.6811 89.4569 34.2442C89.92 34.756 90.146 35.3589 90.146 36.0584C90.146 36.7579 89.9031 37.3722 89.4173 37.8954C88.9316 38.4186 88.3046 38.6802 87.5421 38.6802C86.7739 38.6802 86.147 38.4186 85.6613 37.8954C85.1755 37.3722 84.9326 36.7579 84.9326 36.0584C84.9326 35.3646 85.1642 34.7617 85.6217 34.2499C86.1301 33.6868 86.7683 33.4025 87.5421 33.4025ZM87.5365 34.0337C86.9999 34.0337 86.5424 34.2328 86.1583 34.6309C85.7742 35.029 85.5822 35.5067 85.5822 36.0755C85.5822 36.4394 85.6669 36.7807 85.842 37.0935C86.0171 37.4063 86.2543 37.6508 86.5537 37.8214C86.853 37.9921 87.1806 38.0774 87.5365 38.0774C87.8923 38.0774 88.2199 37.9921 88.5193 37.8214C88.8186 37.6508 89.0559 37.4063 89.231 37.0935C89.4061 36.7807 89.4964 36.4394 89.4964 36.0755C89.4964 35.5124 89.3044 35.029 88.9203 34.6309C88.5249 34.2328 88.0674 34.0337 87.5365 34.0337Z" fill="#00459A"/>
<path d="M96.2008 33.5389H96.3872L98.0704 38.5665H97.3982L96.1613 34.8698L94.2409 38.5665H94.1223L92.1962 34.8527L90.9593 38.5665H90.2871L91.9929 33.5389H92.1679L94.1787 37.4688L96.2008 33.5389Z" fill="#00459A"/>
<path d="M118.415 7.89518C118.308 7.34921 118.212 7.05347 118.212 7.05347C118.212 7.05347 103.871 10.7445 105.809 29.9673C105.379 40.9323 101.279 41.6944 102.465 48.9684C102.572 52.2784 102.408 57.994 101.482 58.2557C100.889 58.4206 99.9852 60.9685 101.171 61.7817C103.205 63.1751 107.339 62.305 108.972 62.0434C108.909 62.0547 108.988 61.9694 108.83 61.9808C106.69 62.1173 101.787 62.3391 101.708 61.0026C101.697 60.7979 101.358 59.7173 101.928 59.1372C102.278 58.7391 102.894 58.813 103.064 58.068C103.481 56.2424 103.453 53.649 103.329 51.5277C103.063 49.2926 102.911 48.8433 103.555 46.449C103.758 44.8281 106.458 33.9427 106.447 30.3996C106.452 26.8678 104.182 14.7369 118.415 7.89518Z" fill="#00459A"/>
<path d="M120.426 46.4603C120.426 46.4603 121.499 53.7343 123.453 55.0082C124.041 57.7609 124.329 60.2178 124.43 61.0026C124.041 61.8841 123.95 62.9249 124.148 63.5107C124.34 64.1021 130.005 64.2045 131.361 63.5562C132.716 62.9078 125.701 63.8519 125.504 62.6746C125.21 60.9173 125.187 61.0822 126.916 60.5988C126.916 60.5988 125.408 59.2339 124.137 54.4225C123.549 54.2234 123.408 54.0585 123.092 53.6319C122.77 53.177 120.996 49.8158 120.426 46.4603Z" fill="#00459A"/>
<path d="M117.647 33.1352C117.597 32.9304 115.976 37.4973 121.274 42.0812C125.487 45.721 125.267 52.0964 125.261 51.8064C125.233 48.5419 125.301 48.8206 125.007 47.2281C124.77 45.9485 123.877 44.0831 121.934 42.0243C119.991 39.9655 119.585 38.8395 119.382 37.2414C119.184 35.6546 118.365 36.1665 117.647 33.1352Z" fill="#00459A"/>
<path d="M130.582 46.7902C130.582 46.7902 130.627 44.5722 138.337 43.9068C138.953 46.3011 136.925 55.1789 136.439 57.3514C135.954 59.5239 136.309 60.1495 136.614 60.4112C136.925 60.6785 138.597 61.742 138.422 62.5837C138.247 63.4254 135.118 63.3799 134.541 63.3401C133.971 63.2946 137.405 63.1638 137.58 62.851C137.755 62.5382 138.196 61.7875 136.609 60.9003C135.022 60.0131 135.417 57.9713 135.417 56.5097C135.417 55.0424 137.354 47.4101 136.914 45.4139C136.484 43.4177 131.153 45.7722 130.582 46.7902Z" fill="#00459A"/>
<path d="M130.085 47.3817C130.152 48.3371 130.717 58.0395 132.423 60.6955C132.615 60.9969 131.367 60.2519 131.367 60.2519C129.509 54.4395 130.039 52.5798 130.085 47.3817Z" fill="#00459A"/>
<path d="M127.198 60.5419C127.198 60.5419 129.65 59.3249 132.553 60.6386C132.637 60.7353 132.942 61.3211 132.903 61.3836C132.863 61.4405 130.497 59.3078 127.198 60.5419Z" fill="#00459A"/>
<path d="M148.266 60.5533C146.99 62.1002 144.951 62.214 142.63 62.0491C141.596 61.9751 141.246 61.6339 140.506 58.3012C140.506 58.3012 139.551 61.3495 141.376 62.4699C143.285 63.1012 144.917 62.9647 145.482 62.8396C145.906 62.7429 148.922 62.0036 149.47 60.5362C149.995 59.1315 149.876 59.0917 150.198 58.6538C150.362 58.4263 150.548 58.2443 150.949 57.2718C151.356 56.2993 152.949 51.0215 154.141 46.3182C155.169 42.8603 154.988 41.3304 154.988 40.5399C154.988 39.7551 155.231 32.9588 152.621 28.8583C152.339 25.4289 152.006 18.7464 148.848 13.1502C145.697 7.55394 140.816 2.90179 132.824 2.81079C133.197 3.81743 133.129 3.85157 133.129 3.85157C133.129 3.85157 151.836 5.02881 150.803 29.1654C154.559 33.8631 154.028 38.2821 153.898 41.1485C153.813 43.1731 152.028 55.9865 148.266 60.5533Z" fill="#00459A"/>
<path d="M110.418 61.7363C110.418 61.7363 111.355 59.6547 109.175 58.3694C107.3 57.2604 118.049 44.885 118.145 44.8565C118.868 44.6916 111.237 40.1361 111.107 28.9152C111.163 25.8157 110.423 34.5854 113.056 40.1418C117.297 47.4329 108 53.0518 108.13 58.0111C109.452 59.8822 108.955 62.0092 109.074 62.0377C109.542 62.1344 110.282 61.8273 110.418 61.7363Z" fill="#00459A"/>
<path d="M126.696 5.00039C126.696 5.00039 126.865 1.9236 127.639 1.5198C128.487 1.08188 130.571 -1.2897 131.943 0.945385C133.333 3.21459 133.988 7.753 133.457 8.13974C132.937 8.52078 131.988 9.42505 130.237 9.94827C129.577 11.1369 131.706 11.899 133.079 16.0962C134.451 20.2877 134.637 20.7199 133.361 22.3351C132.084 23.956 116.614 27.0043 113.394 26.2422C111.406 25.4346 110.824 24.0697 110.983 23.8138C111.265 23.3645 112.621 23.6773 112.621 23.6773C112.621 23.6773 112.225 25.5541 114.016 25.7076C115.874 25.8612 131.491 24.8375 132.203 21.6924C132.915 18.5474 131.045 12.6668 129.435 11.0004C128.916 10.1416 129.769 9.33406 130.147 9.19188C130.526 9.0497 132.186 8.3786 132.056 7.16722C131.926 5.91034 133.593 0.393721 129.91 1.42311C128.244 1.88946 126.922 3.41365 127.165 4.23261C127.312 4.71602 126.696 5.00039 126.696 5.00039Z" fill="#00459A"/>
<path d="M140.043 44.1968C140.043 44.1968 143.856 44.9476 144.539 46.5627C144.72 47.4613 144.324 48.8774 144.624 49.9296C144.968 51.1353 147.516 54.2746 147.99 55.0481C148.041 55.1846 147.984 55.2358 147.854 55.2016C147.725 55.1675 146.12 53.7002 144.065 55.0765C142.009 56.4528 140.845 57.4765 140.67 57.8348C140.495 58.1931 141.743 55.4689 144.573 53.996C144.754 53.2794 143.68 48.8376 143.59 47.0405C143.5 45.357 140.789 44.9703 140.043 44.1968Z" fill="#00459A"/>
<path d="M109.909 21.8005C109.909 21.8005 108.124 19.4005 110.92 18.9796C112.586 19.1616 112.857 20.2991 112.857 20.2991C112.857 20.2991 112.502 21.2886 112.53 21.6754C112.558 22.0678 112.321 20.8678 111.609 20.3275C110.892 19.7872 112.355 21.4081 112.355 21.9768C111.812 21.6185 110.474 21.4422 109.909 21.8005Z" fill="#00459A"/>
<path d="M109.938 21.9199C109.938 21.9199 110.344 23.774 110.96 23.7967C111.575 23.8195 111.225 23.3645 116.314 24.0299C117.184 23.8991 118.568 23.1541 118.692 23.0631C118.811 22.9721 116.597 23.8195 116.241 23.8195C115.885 23.8195 111.745 23.1882 111.191 23.4555C110.689 23.6943 111.028 23.4157 109.938 21.9199Z" fill="#00459A"/>
<path d="M117.597 15.5957C117.597 15.5957 118.094 15.3852 118.201 15.0213C118.308 14.6573 118.596 13.2696 120.008 13.0592C121.319 12.7919 121.872 12.7179 122.398 13.8156C122.708 14.4639 122.708 14.481 122.77 14.5606C122.889 14.6971 122.426 15.1919 122.296 15.2374C122.166 15.2829 122.364 13.5597 121.624 13.3947C120.884 13.2298 119.839 13.1615 119.387 13.5938C118.935 14.026 118.483 14.9701 118.331 15.2487C118.218 15.4478 117.676 15.5957 117.597 15.5957Z" fill="#00459A"/>
<path d="M119.539 13.463C119.539 13.463 120.827 13.19 121.697 14.3218C121.94 14.6516 122.154 14.8109 122.154 14.8109C122.154 14.8109 121.94 15.2488 121.731 15.2033C121.759 15.0099 121.742 14.7255 121.189 14.1625C120.635 13.5938 119.539 13.6336 119.127 13.8611C118.703 14.0829 119.443 13.4459 119.539 13.463Z" fill="#00459A"/>
<path d="M118.687 14.8905C118.687 14.8905 118.636 14.6175 118.647 14.481C118.659 14.3445 119.24 13.8099 119.754 13.9748C119.783 14.5037 119.839 14.8336 119.93 14.7483C120.02 14.663 119.941 14.1511 119.941 14.1511C119.941 14.1511 120.319 14.4525 120.144 14.845C119.89 15.1748 119.862 15.1009 119.862 15.1009C119.862 15.1009 120.811 15.0326 120.918 14.9417C121.025 14.8563 120.229 14.1397 120.026 14.0658C119.822 13.9862 120.568 14.1056 121.042 14.572C121.517 15.0383 121.003 15.408 120.381 15.3056C119.76 15.1976 119.393 15.6355 118.834 15.3568C118.275 15.0724 118.495 14.7995 118.495 14.7995C118.495 14.7995 118.58 14.9473 118.783 14.953C118.986 14.9644 118.811 14.8279 118.811 14.8279" fill="#00459A"/>
<path d="M118.528 26.3446C118.528 26.3446 121.369 27.556 123.075 27.1294C124.668 26.7313 130.373 31.0878 131.762 33.0442C133.152 35.0006 139.359 33.1124 140.026 32.7769C140.692 32.4413 134.168 34.3522 132.446 32.9532C131.333 32.0489 126.933 26.5607 124.374 26.5664C122.267 26.5721 121.917 27.2944 118.528 26.3446Z" fill="#00459A"/>
<path d="M134.755 6.24591C134.755 6.24591 148.571 14.4355 145.007 25.446C142.815 28.6422 137.467 28.4432 133.908 27.8347C137.043 28.3465 142.697 27.7266 143.832 25.3835C145.176 22.6138 145.668 19.3607 142.697 15.7777C139.732 12.1947 138.319 8.11132 134.755 6.24591Z" fill="#00459A"/>
<path d="M124.352 4.88095C124.352 4.88095 123.765 4.8127 123.454 4.98332C123.143 5.15962 121.24 3.97098 120.376 4.24966C120.483 4.24966 119.512 2.16245 117.297 3.16909C116.366 3.41364 116.467 5.05156 117.439 5.88759C118.303 6.96816 118.822 8.81083 118.715 9.29993C118.613 9.78903 119.545 8.7767 119.754 8.53215C119.963 8.2876 116.264 5.05157 117.439 3.90275C118.992 3.76057 121.556 6.47906 120.41 7.4857C119.269 8.50371 123.872 4.8127 124.352 4.88095Z" fill="#00459A"/>
<path d="M126.707 3.84021C126.707 3.84021 122.279 4.25539 118.687 9.44783C115.817 12.4109 113.569 14.6005 114.292 15.0554C113.914 15.681 110.802 18.6043 110.661 18.6782C110.525 18.7465 111.768 18.3313 112.491 18.7806C113.219 19.2356 114.671 15.9938 114.739 15.3682C114.806 14.7427 122.172 4.50561 126.188 6.59283C125.668 5.92742 126.323 4.08476 126.707 3.84021Z" fill="#00459A"/>
<path d="M128.328 6.72931C128.328 6.72931 129.469 8.6459 129.401 9.02694C129.334 9.40798 129.023 9.89709 128.814 9.86296C128.605 9.82884 128.916 9.4478 128.78 8.78239C128.639 8.12267 128.712 7.38903 128.328 6.72931Z" fill="#00459A"/>
<path d="M118.031 44.5608C118.031 44.5608 119.635 45.8063 119.94 46.0508C120.251 46.2954 118.122 44.6859 117.06 45.6584C116.003 46.6366 118.031 44.5608 118.031 44.5608Z" fill="#00459A"/>
</svg>
